<svg xmlns:xlink="http://www.w3.org/1999/xlink" width="196" height="21" viewBox="0 0 196 21" fill="none" xmlns="http://www.w3.org/2000/svg"> <path d="M46.5753 5.51908C44.1541 4.66375 41.8137 4.7172 39.7422 6.50805C39.7153 6.53478 39.6615 6.53478 39.5539 6.53478C39.5539 4.50337 39.5539 2.4987 39.5539 0.494019C38.155 0.494019 36.8099 0.494019 35.4648 0.494019C35.4648 7.12282 35.4648 13.6982 35.4648 20.3002C36.7561 20.3002 38.0205 20.3002 39.3118 20.3002C39.3118 19.7389 39.3118 19.2311 39.3118 18.6163C41.0873 20.4339 42.2172 20.915 44.3962 20.7813C48.0818 20.5408 51.2831 17.6541 51.7942 14.1525C52.3592 10.357 50.2339 6.80207 46.5753 5.51908ZM43.5892 17.0393C41.2756 17.0393 39.4194 15.2217 39.4194 12.923C39.4194 10.6243 41.2487 8.78002 43.5623 8.78002C45.8758 8.78002 47.7321 10.6243 47.7321 12.923C47.7321 15.195 45.9028 17.0393 43.5892 17.0393Z" fill="#FFFFFF"></path> <path d="M76.2479 11.3459C75.3871 7.36332 71.7284 4.74388 67.4779 5.0379C63.7117 5.30519 60.5641 8.16519 59.9992 11.8271C59.4612 15.4088 61.6402 18.9637 65.2182 20.2734C67.8007 21.209 70.5716 21.0486 72.4009 18.7232C72.4278 18.6964 72.4548 18.6964 72.5624 18.6964C72.5624 19.2577 72.5624 19.7923 72.5624 20.3536C73.8805 20.3536 75.118 20.3536 76.4093 20.3536C76.4093 17.6273 76.4093 14.9811 76.4093 12.3349C76.4093 11.9874 76.3286 11.6667 76.2479 11.3459ZM68.285 17.0392C65.9714 17.0392 64.1152 15.1949 64.1152 12.923C64.1152 10.651 65.9714 8.77996 68.2581 8.77996C70.5447 8.77996 72.4278 10.6243 72.4278 12.923C72.4278 15.1682 70.5716 17.0392 68.285 17.0392Z" fill="#FFFFFF"></path> <path d="M139.333 11.7737C138.633 7.5772 134.921 4.74393 130.509 5.03795C126.796 5.27851 123.568 8.16524 123.057 11.6667C122.492 15.4355 124.563 18.9638 128.222 20.2735C130.939 21.2357 133.441 21.1021 135.459 18.7232C135.459 18.7232 135.486 18.7232 135.566 18.7499C135.566 19.2578 135.566 19.7924 135.566 20.3537C136.884 20.3537 138.122 20.3537 139.44 20.3537C139.44 20.22 139.467 20.1131 139.467 20.0062C139.467 17.5471 139.467 15.1148 139.467 12.6557C139.413 12.3617 139.386 12.0677 139.333 11.7737ZM131.208 17.0393C128.868 16.9858 127.065 15.1148 127.119 12.7894C127.173 10.4907 129.083 8.72655 131.397 8.78001C133.683 8.83347 135.486 10.7312 135.432 13.0299C135.351 15.2752 133.468 17.0927 131.208 17.0393Z" fill="#FFFFFF"></path> <path d="M108.288 8.6731C109.203 7.63067 110.09 6.58824 111.086 5.43889C109.498 5.43889 108.046 5.43889 106.566 5.43889C106.216 5.43889 106.001 5.54581 105.759 5.8131C104.387 7.47029 103.015 9.10076 101.616 10.7312C101.535 10.8381 101.428 10.9718 101.347 11.0787C101.293 11.052 101.266 11.0253 101.213 10.9985C101.213 7.49702 101.213 4.02225 101.213 0.520752C99.8138 0.520752 98.4418 0.520752 97.0967 0.520752C97.0967 7.14955 97.0967 13.7249 97.0967 20.3537C98.4687 20.3537 99.8407 20.3537 101.24 20.3537C101.24 17.7877 101.24 15.2484 101.24 12.5755C101.455 12.8161 101.562 12.9765 101.67 13.1101C103.446 15.3821 105.194 17.6808 106.943 19.9795C107.185 20.3002 107.454 20.4339 107.857 20.4071C109.149 20.3804 110.44 20.4071 111.731 20.4071C111.893 20.4071 112.054 20.3804 112.296 20.3804C110.01 17.4937 107.777 14.6871 105.517 11.8539C106.485 10.7312 107.373 9.71553 108.288 8.6731Z" fill="#FFFFFF"></path> <path d="M175.758 5.17155C172.018 5.97342 169.328 9.04726 169.247 12.6557C169.14 17.1729 172.825 20.808 177.506 20.8348C178.071 20.7546 178.663 20.7278 179.228 20.6209C183.909 19.7389 186.787 15.1682 185.496 10.7312C184.312 6.74857 179.981 4.26277 175.758 5.17155ZM177.533 17.0392C175.247 17.0392 173.444 15.2217 173.417 12.923C173.417 10.5975 175.247 8.75324 177.533 8.75324C179.793 8.75324 181.622 10.5975 181.622 12.8962C181.622 15.1949 179.793 17.0392 177.533 17.0392Z" fill="#FFFFFF"></path> <path d="M152.918 15.2751C151.653 17.0393 149.367 17.5738 147.484 16.478C145.601 15.3821 144.874 13.0299 145.816 11.1054C147.215 8.21869 151.169 7.9514 153.025 10.5976C153.133 10.7579 153.348 10.9718 153.51 10.9718C154.855 10.9985 156.2 10.9985 157.626 10.9985C157.518 10.6778 157.437 10.4372 157.357 10.1966C155.635 5.86653 150.47 3.83513 146.058 5.75962C142.695 7.22971 140.704 10.7312 141.323 14.1525C141.915 17.4402 144.444 19.9795 147.78 20.6744C151.196 21.3694 154.747 19.9527 156.55 17.1462C156.953 16.5047 157.249 15.783 157.653 14.9811C156.065 14.9811 154.666 14.9811 153.294 15.0079C153.187 14.9544 152.999 15.1415 152.918 15.2751Z" fill="#FFFFFF"></path> <path d="M83.6461 5.59922C80.5792 6.85549 79.0996 9.34129 78.9651 12.5755C78.8575 15.0346 78.9382 17.4936 78.9382 19.9527C78.9382 20.0596 78.9651 20.1933 78.992 20.2735C80.364 20.2735 81.736 20.2735 83.108 20.2735C83.108 20.0329 83.108 19.8458 83.108 19.6587C83.108 17.4669 83.108 15.2751 83.108 13.1101C83.108 12.6022 83.1349 12.0676 83.2694 11.5598C83.673 9.79568 84.9911 8.72652 86.7129 8.72652C88.4346 8.72652 89.7528 9.82241 90.1563 11.5865C90.2639 12.1211 90.3177 12.6824 90.3177 13.2437C90.3446 15.4088 90.3177 17.5738 90.3177 19.7389C90.3177 19.926 90.3177 20.1131 90.3177 20.3002C91.7435 20.3002 93.0617 20.3002 94.4606 20.3002C94.4606 17.654 94.5413 15.0613 94.4337 12.4953C94.1916 6.56147 88.5422 3.62128 83.6461 5.59922Z" fill="#FFFFFF"></path> <path d="M163.517 0.494019C162.118 0.494019 160.8 0.494019 159.428 0.494019C159.401 0.627664 159.401 0.761309 159.401 0.868225C159.401 4.98449 159.374 9.10076 159.428 13.1903C159.455 16.6383 161.634 19.4984 164.809 20.4606C165.75 20.7546 166.692 20.8348 167.687 20.7813C167.687 19.5251 167.687 18.2955 167.687 17.066C167.553 17.0393 167.472 17.0126 167.364 17.0126C165.212 16.772 163.679 15.2217 163.571 13.0567C163.517 12.2548 163.544 11.4262 163.544 10.6243C163.544 10.0897 163.544 9.55516 163.544 8.96712C164.97 8.96712 166.315 8.96712 167.687 8.96712C167.687 7.79104 167.687 6.64169 167.687 5.41216C166.288 5.41216 164.916 5.41216 163.517 5.41216C163.517 3.7015 163.517 2.09776 163.517 0.494019Z" fill="#FFFFFF"></path> <path d="M119.426 4.3697C120.018 3.62129 120.879 3.40745 121.793 3.30054C121.793 2.20465 121.793 1.10876 121.793 0.0395987C120.179 -0.0673174 118.646 -0.0138605 117.274 0.921655C115.713 1.99082 114.933 3.51437 114.826 5.43886C114.261 5.43886 113.75 5.43886 113.185 5.43886C113.185 6.64166 113.185 7.79101 113.185 8.99382C113.75 8.99382 114.288 8.99382 114.853 8.99382C114.853 12.7893 114.853 16.5314 114.853 20.3269C116.278 20.3269 117.597 20.3269 118.995 20.3269C118.995 16.5314 118.995 12.7893 118.995 8.96709C119.964 8.96709 120.852 8.96709 121.766 8.96709C121.766 7.76428 121.766 6.61494 121.766 5.41213C120.825 5.41213 119.937 5.41213 118.888 5.41213C119.103 5.0112 119.211 4.63699 119.426 4.3697Z" fill="#FFFFFF"></path> <path d="M53.8926 20.3002C55.2646 20.3002 56.6366 20.3002 57.9816 20.3002C57.9816 13.6714 57.9816 7.09608 57.9816 0.467285C56.6097 0.467285 55.2646 0.467285 53.8926 0.467285C53.8926 7.12281 53.8926 13.7249 53.8926 20.3002Z" fill="#FFFFFF"></path> <path d="M193.701 5.17159C190.096 5.92 187.648 8.96711 187.621 12.7359C187.594 15.1415 187.621 17.5204 187.621 19.926C187.621 20.0329 187.621 20.1666 187.648 20.3002C187.783 20.3269 187.863 20.3269 187.971 20.3269C189.235 20.3269 190.473 20.3269 191.791 20.3269C191.791 20.0597 191.791 19.8726 191.791 19.6855C191.791 17.4135 191.764 15.1415 191.791 12.8696C191.818 10.9718 193.029 9.39478 194.831 8.88693C195.181 8.78001 195.557 8.75328 195.934 8.69982C195.934 7.47029 195.934 6.24075 195.934 4.93103C195.127 5.03795 194.401 5.03795 193.701 5.17159Z" fill="#FFFFFF"></path> <path d="M5.81175 10.4946L11.1266 3.92058L8.27338 0.453247L0.329033 9.63474C-0.0905633 10.134 -0.118536 10.883 0.30106 11.3823L8.30135 20.9798H14.3156L5.81175 10.4946Z" fill="#00C3E5"></path> <path d="M22.4818 10.9385L17.1774 17.5125L19.9412 20.9798L27.9537 11.7984C28.3725 11.2991 28.4004 10.5501 27.9816 10.0508L19.9971 0.453247H13.9668L22.4818 10.9385Z" fill="#00C3E5"></path> </svg>